HIERARCHY
ROOT Hips
{
	OFFSET -80.168388 91.772041 -268.984589
	CHANNELS 6 Xposition Yposition Zposition Zrotation Yrotation Xrotation 
	JOINT RightUpLeg
	{
		OFFSET 0.103457 1.857818 10.548502
		CHANNELS 3 Xrotation Yrotation Zrotation
		JOINT RightLeg
		{
			OFFSET 43.500000 -0.000011 -0.000004
			CHANNELS 3 Xrotation Yrotation Zrotation
			JOINT RightFoot
			{
				OFFSET 42.372192 -0.000004 -0.000008
				CHANNELS 3 Xrotation Yrotation Zrotation
				JOINT RightToe
				{
					OFFSET 17.300014 0.000006 0.000001
					CHANNELS 3 Xrotation Yrotation Zrotation
					End Site
					{
						OFFSET 0.000000 0.000000 0.000000
					}
				}
			}
		}
	}
	JOINT LeftUpLeg
	{
		OFFSET 0.103457 1.857817 -10.548505
		CHANNELS 3 Xrotation Yrotation Zrotation
		JOINT LeftLeg
		{
			OFFSET 43.500046 -0.000004 0.000011
			CHANNELS 3 Xrotation Yrotation Zrotation
			JOINT LeftFoot
			{
				OFFSET 42.372257 0.000000 0.000015
				CHANNELS 3 Xrotation Yrotation Zrotation
				JOINT LeftToe
				{
					OFFSET 17.300003 -0.000000 0.000002
					CHANNELS 3 Xrotation Yrotation Zrotation
					End Site
					{
						OFFSET 0.000000 0.000000 0.000000
					}
				}
			}
		}
	}
	JOINT Spine
	{
		OFFSET 6.901961 -2.603721 -0.000001
		CHANNELS 3 Xrotation Yrotation Zrotation
		JOINT Spine1
		{
			OFFSET 12.588108 0.000002 -0.000001
			CHANNELS 3 Xrotation Yrotation Zrotation
			JOINT Spine2
			{
				OFFSET 12.343199 -0.000020 0.000006
				CHANNELS 3 Xrotation Yrotation Zrotation
				JOINT Neck
				{
					OFFSET 25.832905 0.000017 0.000000
					CHANNELS 3 Xrotation Yrotation Zrotation
					JOINT Head
					{
						OFFSET 11.766604 -0.000006 0.000004
						CHANNELS 3 Xrotation Yrotation Zrotation
						End Site
						{
							OFFSET 0.000000 0.000000 0.000000
						}
					}
				}
				JOINT RightShoulder
				{
					OFFSET 19.745903 -1.480350 6.000100
					CHANNELS 3 Xrotation Yrotation Zrotation
					JOINT RightArm
					{
						OFFSET 11.284130 -0.000016 -0.000016
						CHANNELS 3 Xrotation Yrotation Zrotation
						JOINT RightForeArm
						{
							OFFSET 33.000046 0.000004 0.000031
							CHANNELS 3 Xrotation Yrotation Zrotation
							JOINT RightHand
							{
								OFFSET 25.199999 0.000027 0.000001
								CHANNELS 3 Xrotation Yrotation Zrotation
								End Site
								{
									OFFSET 0.000000 0.000000 0.000000
								}
							}
						}
					}
				}
				JOINT LeftShoulder
				{
					OFFSET 19.746094 -1.480375 -6.000080
					CHANNELS 3 Xrotation Yrotation Zrotation
					JOINT LeftArm
					{
						OFFSET 11.284131 -0.000016 -0.000017
						CHANNELS 3 Xrotation Yrotation Zrotation
						JOINT LeftForeArm
						{
							OFFSET 33.000095 0.000009 0.000020
							CHANNELS 3 Xrotation Yrotation Zrotation
							JOINT LeftHand
							{
								OFFSET 25.199789 0.000132 0.000423
								CHANNELS 3 Xrotation Yrotation Zrotation
								End Site
								{
									OFFSET 0.000000 0.000000 0.000000
								}
							}
						}
					}
				}
			}
		}
	}
}
MOTION
Frames: 11
Frame Time: 0.033333
-111.944801 86.671028 496.734497 91.380575 -5.933063 -116.845002 168.625431 -12.983799 172.543993 -38.850809 -3.062198 -3.509936 85.247277 0.627609 -9.743219 21.454560 0.003110 0.000018 -176.489124 22.741306 -173.189678 -27.150919 0.277922 3.742676 77.445384 3.414247 22.600679 21.454555 -0.003088 -0.000001 8.878046 0.515402 -0.055318 7.743228 1.033394 -0.076090 7.425078 1.032779 -0.082335 17.367863 9.236356 4.520761 -2.916289 -13.048312 7.914307 -155.241594 -71.639600 -26.848290 6.214807 56.671207 20.072413 -26.635950 -14.502047 1.162722 10.475137 4.733631 13.940593 -160.348103 78.137391 21.545886 -20.131853 -53.658851 -4.298361 -40.412730 15.753985 -1.517858 8.853881 4.281502 -31.581914 
-113.764397 86.275810 494.762604 89.867053 -6.821355 -116.696801 169.019356 -10.798293 171.079491 -40.383596 -4.426751 -2.751667 87.185466 0.635441 -7.701296 21.454557 0.003113 0.000018 179.800523 24.707593 -175.854654 -34.060043 -2.535859 5.209993 73.954522 3.718584 24.517300 21.454557 -0.003092 -0.000002 9.030284 0.008202 -0.025670 8.047697 0.018210 -0.050711 7.729606 0.017769 -0.050829 17.737048 8.182968 3.970084 -3.190125 -11.431777 6.952391 -156.289577 -70.875261 -25.786819 0.597197 55.003001 17.445804 -25.367627 -13.706421 1.091002 10.762214 1.795125 13.985311 -160.273708 77.874894 21.625299 -19.081894 -55.362334 -3.771191 -37.620323 15.738620 -1.445326 9.472651 5.387972 -33.259200 
-115.341599 86.435402 492.848114 88.861581 -7.222274 -116.279599 169.964531 -8.348800 170.510318 -39.841320 -4.758347 -2.722824 87.944833 0.913273 -6.258718 21.454560 0.003112 0.000018 175.262750 24.804899 -179.314964 -41.507012 -4.066705 9.510248 68.132216 0.634094 21.118310 21.454558 -0.003093 -0.000002 9.158631 -0.336895 -0.094997 8.305186 -0.666045 -0.213910 7.987052 -0.667473 -0.209881 18.045314 7.226540 3.471130 -3.396047 -10.361498 6.169220 -158.286287 -70.520228 -23.737303 -4.244522 53.776702 15.443584 -24.840034 -13.291275 1.056151 11.140782 -0.748103 14.429794 -160.179998 77.746097 21.722670 -17.934689 -57.885416 -2.998980 -35.200462 15.407220 -1.366107 10.274496 7.251205 -33.368394 
-116.568497 87.112091 490.880707 88.895479 -7.215092 -115.325982 171.644184 -6.453511 171.623147 -37.630558 -4.817310 -3.370196 87.905306 1.529883 -5.278275 21.454560 0.003110 0.000018 171.302647 23.250394 178.791799 -47.702762 -3.807854 15.022448 61.374919 -5.444817 13.419906 21.454551 -0.003096 0.000007 9.295156 -0.416622 -0.297478 8.579882 -0.810011 -0.625002 8.261775 -0.813906 -0.620105 18.324549 6.794040 3.048301 -3.454452 -9.880515 5.599478 -160.052902 -70.675628 -21.914705 -8.538095 53.272098 13.670601 -25.048600 -13.175819 1.052015 11.285232 -2.381557 14.949740 -160.265908 77.441798 21.639503 -16.344218 -60.482643 -3.187086 -33.368541 14.951559 -1.295716 11.320400 8.534738 -31.870615 
-117.425697 87.894127 488.981415 89.541000 -6.976663 -113.924209 173.587304 -5.466209 173.521284 -34.938518 -5.010941 -4.039989 87.600304 2.128317 -4.451369 21.454562 0.003095 0.000016 168.113454 20.826401 178.812290 -52.907786 -3.013354 16.326746 62.102798 -6.834236 12.620699 21.454553 -0.003095 -0.000002 9.420966 -0.357276 -0.598624 8.832801 -0.667801 -1.222750 8.514761 -0.675300 -1.218708 18.555759 7.041187 2.729966 -3.598719 -9.615440 5.207678 -160.953900 -71.332262 -20.977691 -12.672006 53.261296 11.705896 -25.871858 -13.096645 1.060097 11.021781 -2.958023 15.055205 -160.010705 76.686987 21.910702 -14.097002 -62.810625 -5.046005 -32.170686 14.728961 -1.255860 12.391588 8.297643 -29.980975 
-118.077904 88.563713 487.126801 90.159556 -6.505246 -112.384301 175.320793 -4.903599 174.790483 -32.363161 -4.915363 -4.234285 87.316073 2.384800 -3.655615 21.454560 0.003102 0.000016 164.907582 17.977490 179.790250 -56.822943 -2.005296 14.700261 65.761512 -6.172182 12.174320 21.454557 -0.003101 0.000002 9.478624 -0.296229 -0.947215 8.948832 -0.518331 -1.914465 8.630918 -0.529998 -1.911317 18.553075 7.764007 2.542412 -4.017087 -9.321614 4.986052 -161.320107 -72.357808 -20.587573 -16.405706 53.449007 9.664900 -27.479113 -13.045944 1.083962 10.509165 -2.580164 14.532170 -159.019604 75.671365 22.938707 -10.975110 -65.062470 -8.192558 -31.662199 14.790677 -1.249329 13.035660 6.695953 -29.582335 
-118.711098 89.163689 485.246796 90.705957 -5.726116 -111.086805 176.919767 -4.591707 174.900080 -29.700740 -4.511533 -3.899501 87.046888 2.285760 -2.798998 21.454558 0.003101 0.000018 161.545312 14.820112 -179.053819 -59.093909 -0.877241 11.858230 67.243684 -4.864404 10.432839 21.454555 -0.003085 -0.000004 9.466089 -0.236706 -1.294686 8.923634 -0.372859 -2.603719 8.605897 -0.388708 -2.601435 18.182093 8.575427 2.484650 -4.708348 -9.053640 4.954648 -161.642902 -73.448002 -20.242616 -19.391704 53.614895 7.932091 -30.061698 -13.177957 1.139992 9.925989 -1.706419 13.566925 -157.771919 74.804047 24.229799 -6.924182 -67.368253 -11.713342 -31.773982 14.885315 -1.257733 12.971158 4.376334 -31.755988 
-119.325699 89.458572 483.348297 90.863400 -4.978630 -110.385501 178.380390 -4.239196 173.874842 -27.518829 -4.288648 -3.141340 87.158330 1.930485 -1.838590 21.454557 0.003125 0.000020 157.993040 11.662501 -178.274890 -59.896941 0.031500 8.886901 67.496974 -3.032873 9.594646 21.454553 -0.003095 0.000002 9.442404 -0.277315 -1.618658 8.878166 -0.429638 -3.253771 8.560617 -0.449411 -3.251133 17.618248 9.126173 2.528676 -5.663539 -8.893304 5.092330 -161.988482 -74.288177 -19.878309 -21.638092 53.455485 6.771711 -33.423941 -13.501998 1.230029 9.238919 -1.078578 12.537952 -157.114131 74.326289 24.912285 -2.253201 -69.525226 -15.299151 -32.121574 14.817539 -1.260549 12.436520 1.553721 -35.764612 
-119.991699 89.547760 481.350006 90.859780 -4.432544 -110.318299 -179.881419 -3.787291 172.468738 -25.486670 -4.508570 -2.413289 87.524496 1.638874 -0.737329 21.454558 0.003106 0.000018 154.919482 8.206699 -177.527968 -58.584472 0.809109 6.777705 68.420757 -2.496315 7.026619 21.454550 -0.003099 0.000005 9.468050 -0.383156 -1.899435 8.933756 -0.618555 -3.822771 8.616400 -0.641749 -3.818973 17.141108 9.300563 2.650643 -6.752995 -8.848942 5.341794 -162.201816 -74.737378 -19.654682 -23.602287 52.863205 5.962615 -37.008779 -13.892573 1.337858 8.366260 -1.217089 11.789710 -157.427896 74.194139 24.593290 1.825580 -71.135546 -18.697412 -32.172711 14.579930 -1.246316 12.096560 -1.914275 -39.850394 
-120.690598 89.512428 479.280914 90.832118 -4.081155 -110.669207 -177.929802 -3.032116 171.809433 -23.456251 -4.922466 -2.362689 87.977652 1.770525 0.119956 21.454560 0.003103 0.000017 152.836179 4.795378 -176.808408 -54.885365 1.539733 5.393371 69.383869 -1.787211 6.397487 21.454557 -0.003102 0.000001 9.549395 -0.511022 -2.133033 9.102241 -0.852687 -4.299708 8.785075 -0.878754 -4.294490 16.953006 9.188133 2.837637 -7.756851 -8.844811 5.634632 -162.526797 -74.820563 -19.321002 -25.702695 51.855694 5.118104 -40.143283 -14.212766 1.438060 7.359174 -2.082282 11.391633 -158.410911 74.248056 23.585391 4.113337 -72.075318 -21.240884 -31.711458 14.205538 -1.212650 12.576778 -5.838327 -42.928456 
-121.426598 89.373817 477.173004 90.709345 -3.773191 -111.079401 -176.213116 -1.888508 172.383115 -21.695196 -5.271277 -3.064059 88.535432 2.345216 0.624246 21.454558 0.003111 0.000020 151.901727 1.478691 -175.887753 -48.475809 2.047913 5.075919 69.058847 -1.717503 5.947109 21.454550 -0.003085 -0.000001 9.641544 -0.630094 -2.329438 9.292698 -1.071056 -4.702086 8.975713 -1.099546 -4.695552 17.004635 9.026062 3.011612 -8.432263 -8.790518 5.852116 -163.357102 -74.718137 -18.472112 -28.232105 50.651406 3.891005 -42.234666 -14.365841 1.504630 6.382990 -3.245522 11.090187 -159.328793 74.344847 22.643499 4.649623 -72.522532 -22.563561 -30.946139 13.766937 -1.168940 14.003964 -9.434178 -45.086731 
